<?xml version="1.0" encoding="iso-8859-1"?>
<!-- Generator: Adobe Illustrator 19.0.0, SVG Export Plug-In . SVG Version: 6.00 Build 0)  -->
<svg xmlns="http://www.w3.org/2000/svg" xmlns:xlink="http://www.w3.org/1999/xlink" version="1.1" id="Capa_1" x="0px" y="0px" viewBox="0 0 512.004 512.004" style="enable-background:new 0 0 512.004 512.004;" xml:space="preserve" width="512px" height="512px">
<g>
	<g>
		<path d="M411.324,228.678l-160-160c-4.576-4.544-11.424-5.888-17.44-3.456c-5.984,2.464-9.888,8.32-9.888,14.784v80.544    c-110.432,7.552-201.792,92.736-215.68,204l-8.192,65.472c-0.928,7.456,3.424,14.56,10.528,17.056    c1.76,0.608,3.552,0.928,5.344,0.928c5.376,0,10.592-2.752,13.568-7.52l16.096-25.792c37.056-59.296,100.96-94.688,170.88-94.688    h7.456v80c0,6.464,3.904,12.32,9.888,14.784c6.016,2.432,12.832,1.088,17.44-3.456l160-160    C417.564,245.062,417.564,234.95,411.324,228.678z M255.996,361.382v-57.376c0-8.832-7.168-16-16-16H216.54    c-68.768,0-132.512,29.568-176.48,80.544c12.576-100.672,98.528-176.544,199.936-176.544c8.832,0,16-7.168,16-16V118.63    l121.376,121.376L255.996,361.382z" fill="#ffffff"/>
	</g>
</g>
<g>
	<g>
		<path d="M507.324,228.71l-160-160.032c-6.24-6.24-16.384-6.24-22.624,0s-6.24,16.384,0,22.624l148.672,148.704L324.7,388.678    c-6.24,6.24-6.24,16.384,0,22.624c3.104,3.136,7.2,4.704,11.296,4.704s8.192-1.568,11.328-4.672l160-160    C513.564,245.094,513.564,234.95,507.324,228.71z" fill="#ffffff"/>
	</g>
</g>
<g>
</g>
<g>
</g>
<g>
</g>
<g>
</g>
<g>
</g>
<g>
</g>
<g>
</g>
<g>
</g>
<g>
</g>
<g>
</g>
<g>
</g>
<g>
</g>
<g>
</g>
<g>
</g>
<g>
</g>
</svg>
