<?xml version="1.0"?>
<svg xmlns="http://www.w3.org/2000/svg" xmlns:xlink="http://www.w3.org/1999/xlink" version="1.1" id="Capa_1" x="0px" y="0px" viewBox="0 0 512 512" style="enable-background:new 0 0 512 512;" xml:space="preserve" width="512px" height="512px" class=""><g><g>
	<g>
		<path d="M507.606,245.394l-32.133-32.133L266.606,4.394C263.793,1.58,259.978,0,256,0c-3.979,0-7.794,1.58-10.607,4.394    l-240.999,241c-5.858,5.857-5.858,15.355,0,21.213c5.858,5.857,15.354,5.857,21.213,0l6.526-6.526V497c0,8.284,6.716,15,15,15    h145.668V336.332c0-8.284,6.715-15,15-15H304.2c8.283,0,15,6.716,15,15V512h145.668c8.283,0,15-6.716,15-15V260.08l6.525,6.526    c2.93,2.929,6.768,4.394,10.607,4.394c3.838,0,7.678-1.465,10.605-4.394C513.464,260.749,513.464,251.251,507.606,245.394z" data-original="#000000" class="active-path" data-old_color="#000000" fill="#FECF05"/>
	</g>
</g></g> </svg>
