<?xml version="1.0" encoding="iso-8859-1"?>
<!-- Generator: Adobe Illustrator 19.0.0, SVG Export Plug-In . SVG Version: 6.00 Build 0)  -->
<svg version="1.1" id="Capa_1" xmlns="http://www.w3.org/2000/svg" xmlns:xlink="http://www.w3.org/1999/xlink" x="0px" y="0px"
	 viewBox="0 0 512 512" style="enable-background:new 0 0 512 512;" xml:space="preserve">
<path style="fill:#E5E5E5;" d="M205.683,35.273C195.985,13.843,174.525,0,151,0c-21.855,0-41.631,12.026-52.075,30.542
	C63.52,25.532,31,54.258,31,90c0,10.576,2.856,20.903,8.188,30C33.856,129.097,31,139.424,31,150c0,33.091,26.909,60,60,60
	c6.855,0,13.579-1.157,20.01-3.413c7.808-2.769,11.909-11.338,9.155-19.146l78.032-132.319
	C205.741,51.709,209.096,42.817,205.683,35.273z"/>
<path style="fill:#D9D9D9;" d="M477.016,90c0-35.757-32.622-64.512-67.925-59.458C398.646,12.026,378.871,0,357.016,0
	c-23.525,0-44.985,13.843-54.683,35.273c-3.413,7.544-0.059,16.436,7.485,19.849l92.944,153.179
	c4.629,1.128,9.419,1.699,14.253,1.699c33.091,0,60-26.909,60-60c0-10.576-2.856-20.903-8.188-30
	C474.159,110.903,477.016,100.576,477.016,90z"/>
<path style="fill:#A24F3D;" d="M512,497c0,8.401-6.599,15-15,15H15c-8.401,0-15-6.599-15-15c0-74.399,61.601-137,136-137h240
	C450.399,360,512,422.601,512,497z"/>
<path style="fill:#8B432D;" d="M512,497c0,8.401-6.599,15-15,15H256V360h120C450.399,360,512,422.601,512,497z"/>
<path style="fill:#FEC478;" d="M106,180c-41.353,0-75,33.647-75,75s33.647,75,75,75c8.291,0,15-6.709,15-15V195
	C121,186.709,114.291,180,106,180z"/>
<path style="fill:#FEB756;" d="M406,180c-8.291,0-15,6.709-15,15v120c0,8.291,6.709,15,15,15c41.353,0,75-33.647,75-75
	S447.353,180,406,180z"/>
<path style="fill:#FEDBAB;" d="M256,30c-90.901,0-165,74.099-165,165v90c0,90.901,74.099,165,165,165s165-74.099,165-165v-90
	C421,104.099,346.901,30,256,30z"/>
<path style="fill:#FEC478;" d="M421,195v90c0,90.901-74.099,165-165,165V30C346.901,30,421,104.099,421,195z"/>
<path style="fill:#FE8821;" d="M296.8,381.599c-12.9,5.7-26.7,8.401-40.8,8.401s-27.9-2.701-40.8-8.401
	c-7.8-2.999-11.1-11.999-8.101-19.499c3.3-7.8,12.301-11.1,19.801-8.101c9.3,3.9,19.199,6,29.099,6c9.9,0,19.799-2.1,29.099-6
	c7.5-2.999,16.501,0.3,19.801,8.101C307.899,369.6,304.6,378.6,296.8,381.599z"/>
<path style="fill:#3C3A41;" d="M301.901,243.6c-3.001,4.2-7.8,6.601-12.601,6.601c-2.699,0-5.7-0.901-8.399-2.701
	c-7.5-5.099-16.201-7.5-24.901-7.5s-17.401,2.401-24.901,7.5c-6.899,4.799-16.199,2.999-21-3.9c-4.499-6.899-2.699-16.199,4.2-21
	c12.302-8.4,27.001-12.3,41.701-12.3c14.7,0,29.399,3.9,41.7,12.299C304.6,227.401,306.4,236.7,301.901,243.6z"/>
<path style="fill:#2B292C;" d="M280.901,247.5c-7.5-5.099-16.201-7.5-24.901-7.5v-29.7c14.7,0,29.399,3.9,41.7,12.299
	c6.899,4.801,8.699,14.101,4.2,21c-3.001,4.2-7.8,6.601-12.601,6.601C286.601,250.201,283.599,249.3,280.901,247.5z"/>
<path style="fill:#E5741A;" d="M296.8,381.599c-12.9,5.7-26.7,8.401-40.8,8.401v-30c9.901,0,19.799-2.1,29.099-6
	c7.5-2.999,16.501,0.3,19.801,8.101C307.899,369.6,304.6,378.6,296.8,381.599z"/>
<path style="fill:#57555C;" d="M166,330c-41.353,0-75-33.647-75-75s33.647-75,75-75s75,33.647,75,75S207.353,330,166,330z"/>
<path style="fill:#CAE8F9;" d="M166,210c-24.814,0-45,20.186-45,45s20.186,45,45,45s45-20.186,45-45S190.814,210,166,210z"/>
<path style="fill:#3C3A41;" d="M346,330c-41.353,0-75-33.647-75-75s33.647-75,75-75s75,33.647,75,75S387.353,330,346,330z"/>
<path style="fill:#B7E0F6;" d="M347.3,210.019c-24.804-0.717-45.564,18.877-46.281,43.681s18.877,45.564,43.681,46.281
	c24.804,0.717,45.564-18.877,46.281-43.681S372.104,210.736,347.3,210.019z"/>
<g>
</g>
<g>
</g>
<g>
</g>
<g>
</g>
<g>
</g>
<g>
</g>
<g>
</g>
<g>
</g>
<g>
</g>
<g>
</g>
<g>
</g>
<g>
</g>
<g>
</g>
<g>
</g>
<g>
</g>
</svg>
