<?xml version="1.0"?>
<svg xmlns="http://www.w3.org/2000/svg" xmlns:xlink="http://www.w3.org/1999/xlink" version="1.1" id="Capa_1" x="0px" y="0px" viewBox="0 0 58 58" style="enable-background:new 0 0 58 58;" xml:space="preserve" width="512px" height="512px" class=""><g><g>
	<path style="fill:#FFFFFF" d="M56,17.207c0-8.822-7.178-16-16-16H16c-8.822,0-16,7.178-16,16v14c0,8.485,6.644,15.429,15,15.949   v-3.949c0-0.553,0.448-1,1-1s1,0.447,1,1v4v1v8.586l1.359-1.359c5.306-5.305,12.359-8.227,19.86-8.227H40c8.822,0,16-7.178,16-16   V17.207z" data-original="#69BC45" class="active-path" data-old_color="#ffffff"/>
	<g>
		<polygon style="fill:#FECF05" points="46,33.223 49.708,40.465 58,41.626 52,47.263 53.416,55.223 46,51.465 38.584,55.223     40,47.263 34,41.626 42.292,40.465   " data-original="#F3D55A" class="" data-old_color="#F3D55A"/>
	</g>
</g></g> </svg>
